<?xml version="1.0" encoding="utf-8"?>
<!DOCTYPE svg PUBLIC "-//W3C//DTD SVG 1.1//EN" "http://www.w3.org/Graphics/SVG/1.1/DTD/svg11.dtd">
<svg version="1.1" xmlns="http://www.w3.org/2000/svg" xmlns:xlink="http://www.w3.org/1999/xlink" x="0px" y="0px" width="300px"
	 height="300px" viewBox="0 0 300 300" enable-background="new 0 0 300 300" xml:space="preserve">
	<g>
		<path d="M75.064,280.518c-2.652,0-5.195-1.054-7.071-2.929c-21.923-21.922-33.996-51.068-33.997-82.07
			c0-31.003,12.073-60.149,33.995-82.071l75.002-75.001c1.9-1.899,4.454-2.929,7.072-2.929c0.861,0,1.729,0.111,2.584,0.34
			l75,20.072c3.678,0.984,6.478,3.972,7.222,7.705c0.744,3.734-0.696,7.566-3.715,9.886l-22.028,16.919l54.072,54.072
			c3.443,3.444,3.905,8.868,1.094,12.845l-31.064,43.935c-1.702,2.407-4.379,3.94-7.316,4.19c-0.283,0.024-0.567,0.036-0.85,0.036
			c-2.64,0-5.187-1.046-7.07-2.929l-2.005-2.005c-7.71-6.889-17.63-10.68-27.961-10.68c-8.211,0-16.031,2.332-22.746,6.689
			l66.853,66.853c2.859,2.86,3.715,7.161,2.168,10.898c-1.548,3.736-5.194,6.173-9.239,6.173H75.064z"/>
		<path fill="#FFFFFF" d="M150.064,45.518l75,20.072l-31.066,23.861l62.131,62.132l-31.064,43.935l-2.193-2.193
			c-9.223-8.334-21.436-13.42-34.844-13.42c-14.762,0-28.068,6.166-37.534,16.043l74.569,74.57H75.064h-0.002
			c-41.422-41.421-41.422-108.578,0-149.999v-0.001L150.064,45.518 M150.063,195.518L150.063,195.518L150.063,195.518
			 M150.065,25.518c-5.235,0-10.343,2.058-14.143,5.857l-75.002,75c-23.812,23.812-36.925,55.47-36.925,89.143
			c0,33.674,13.113,65.332,36.925,89.143c3.75,3.75,8.837,5.857,14.142,5.857h150c8.089,0,15.382-4.873,18.478-12.347
			s1.385-16.075-4.335-21.796l-56.098-56.098c1.612-0.247,3.256-0.373,4.92-0.373c7.78,0,15.256,2.824,21.102,7.962l1.793,1.794
			c3.767,3.766,8.861,5.857,14.142,5.857c0.564,0,1.131-0.023,1.698-0.072c5.875-0.5,11.229-3.567,14.633-8.381l31.064-43.935
			c5.624-7.953,4.699-18.802-2.188-25.688l-46.013-46.014l12.988-9.977c6.039-4.639,8.92-12.303,7.432-19.771
			s-7.088-13.442-14.443-15.411l-75-20.072C153.526,25.74,151.789,25.518,150.065,25.518L150.065,25.518z"/>
	</g>
</svg>
