<?xml version="1.0" encoding="utf-8"?>
<!DOCTYPE svg PUBLIC "-//W3C//DTD SVG 1.1//EN" "http://www.w3.org/Graphics/SVG/1.1/DTD/svg11.dtd">
<svg version="1.1" xmlns="http://www.w3.org/2000/svg" xmlns:xlink="http://www.w3.org/1999/xlink" x="0px" y="0px" width="300px"
	 height="300px" viewBox="0 0 300 300" enable-background="new 0 0 300 300" xml:space="preserve">
	<g>
		<path d="M75.063,280.518c-2.652,0-5.195-1.054-7.071-2.929c-21.922-21.923-33.995-51.069-33.995-82.071
			c0-16.757,3.5-32.934,10.403-48.081c1.625-3.565,5.182-5.854,9.1-5.854h71.032v-11.065h-21.066c-5.522,0-10-4.478-10-10V89.452
			c0-5.522,4.478-10,10-10h21.066V58.387c0-5.522,4.478-10,10-10h31.067c5.522,0,10,4.478,10,10v21.065h21.066
			c5.522,0,10,4.478,10,10v31.065c0,5.522-4.478,10-10,10h-21.066v11.065h71.027c3.918,0,7.475,2.288,9.1,5.853
			c6.902,15.145,10.402,31.321,10.402,48.082c0,31.002-12.072,60.148-33.993,82.071c-1.875,1.875-4.419,2.929-7.071,2.929H75.063z"
			/>
		<path fill="#FFFFFF" d="M165.599,58.387v31.065h31.066v31.065h-31.066v31.065h81.027c6.102,13.387,9.502,28.263,9.502,43.935
			c0,29.289-11.871,55.806-31.064,75H75.063c-19.194-19.194-31.066-45.711-31.066-75c0-15.672,3.402-30.548,9.503-43.935h81.032
			v-31.065h-31.066V89.452h31.066V58.387H165.599 M165.599,38.387h-31.067c-11.046,0-20,8.954-20,20v11.065h-11.066
			c-11.046,0-20,8.954-20,20v31.065c0,4.092,1.229,7.896,3.338,11.065H53.499c-7.836,0-14.95,4.576-18.199,11.706
			c-7.501,16.459-11.304,34.031-11.304,52.229c0,33.673,13.113,65.331,36.924,89.143c3.751,3.75,8.838,5.857,14.143,5.857h150.001
			c5.305,0,10.392-2.107,14.143-5.858c23.81-23.811,36.922-55.469,36.922-89.142c0-18.201-3.803-35.773-11.303-52.229
			c-3.25-7.13-10.364-11.705-18.199-11.705h-33.298c2.108-3.169,3.337-6.974,3.337-11.065V89.452c0-11.046-8.954-20-20-20h-11.066
			V58.387C185.599,47.341,176.645,38.387,165.599,38.387L165.599,38.387z"/>
	</g>
</svg>
