<?xml version="1.0" encoding="utf-8"?>
<!DOCTYPE svg PUBLIC "-//W3C//DTD SVG 1.1//EN" "http://www.w3.org/Graphics/SVG/1.1/DTD/svg11.dtd">
<svg version="1.1" xmlns="http://www.w3.org/2000/svg" xmlns:xlink="http://www.w3.org/1999/xlink" x="0px" y="0px" width="300px"
	 height="300px" viewBox="0 0 300 300" enable-background="new 0 0 300 300" xml:space="preserve">
	<g>
		<path d="M75.063,280.518c-2.652,0-5.195-1.054-7.071-2.929c-21.922-21.922-33.994-51.068-33.994-82.07
			c0-63.999,52.066-116.065,116.065-116.065s116.066,52.066,116.066,116.065c0,31.002-12.073,60.148-33.994,82.07
			c-1.876,1.875-4.419,2.929-7.071,2.929H75.063z"/>
		<path fill="#FFFFFF" d="M150.063,89.453c58.579,0,106.066,47.486,106.066,106.065c0,29.288-11.872,55.806-31.065,74.999H75.063
			c-19.193-19.193-31.065-45.711-31.065-74.999C43.997,136.939,91.484,89.453,150.063,89.453 M150.063,69.453
			c-33.674,0-65.331,13.113-89.142,36.924s-36.924,55.468-36.924,89.142c0,33.673,13.113,65.331,36.923,89.142
			c3.751,3.75,8.838,5.857,14.143,5.857h150.001c5.305,0,10.392-2.107,14.142-5.857c23.811-23.811,36.924-55.469,36.924-89.142
			c0-33.674-13.113-65.331-36.924-89.142S183.736,69.453,150.063,69.453L150.063,69.453z"/>
	</g>
</svg>
