<?xml version="1.0" encoding="utf-8"?>
<!DOCTYPE svg PUBLIC "-//W3C//DTD SVG 1.1//EN" "http://www.w3.org/Graphics/SVG/1.1/DTD/svg11.dtd">
<svg version="1.1" xmlns="http://www.w3.org/2000/svg" xmlns:xlink="http://www.w3.org/1999/xlink" x="0px" y="0px" width="300px"
	 height="300px" viewBox="0 0 300 300" enable-background="new 0 0 300 300" xml:space="preserve">
	<g>
		<path fill="#FFFFFF" d="M75.062,280.518c-2.652,0-5.195-1.054-7.071-2.929c-21.922-21.922-33.994-51.068-33.994-82.07c0-5.522,4.478-10,10-10
			h17.718l-20.71-70.708c-12.675-1.486-22.541-12.292-22.541-25.358c0-14.078,11.454-25.532,25.533-25.532
			s25.533,11.454,25.533,25.532c0,3.327-0.632,6.557-1.839,9.552l34.929,34.929l29.21-70.523c-4.598-4.677-7.3-11.042-7.3-17.89
			c0-14.079,11.454-25.533,25.533-25.533s25.533,11.454,25.533,25.533c0,6.848-2.702,13.213-7.3,17.89l29.211,70.523l34.928-34.928
			c-1.207-2.996-1.839-6.226-1.839-9.553c0-14.078,11.454-25.532,25.533-25.532s25.533,11.454,25.533,25.532
			c0,13.066-9.865,23.871-22.539,25.357l-20.712,70.709h17.717c5.522,0,10,4.478,10,10c0,31.001-12.072,60.147-33.994,82.07
			c-1.875,1.875-4.419,2.929-7.071,2.929H75.062z"/>
		<path d="M150.063,29.986c8.579,0,15.533,6.955,15.533,15.533c0,6.473-3.961,12.016-9.59,14.35l37.989,91.717
			l51.15-51.149c-2.812-2.812-4.55-6.694-4.55-10.984c0-8.579,6.953-15.532,15.533-15.532c8.578,0,15.533,6.953,15.533,15.532
			s-6.955,15.532-15.533,15.532c-1.517,0-2.979-0.227-4.363-0.632l-26.704,91.166h31.066c0,29.288-11.872,55.805-31.065,74.999
			H75.062c-19.194-19.194-31.065-45.711-31.065-74.999h31.067L48.36,104.352c-1.386,0.406-2.848,0.633-4.364,0.633
			c-8.579,0-15.533-6.953-15.533-15.532S35.417,73.92,43.996,73.92s15.533,6.953,15.533,15.532c0,4.29-1.738,8.173-4.55,10.983
			l51.151,51.15l37.988-91.717c-5.629-2.334-9.59-7.877-9.59-14.35C134.529,36.941,141.483,29.986,150.063,29.986 M150.063,9.986
			c-19.593,0-35.533,15.94-35.533,35.533c0,7.106,2.091,13.84,5.808,19.503l-21.229,51.256L78.915,96.087
			c0.406-2.165,0.614-4.384,0.614-6.635c0-19.593-15.94-35.532-35.533-35.532S8.463,69.859,8.463,89.452
			c0,15.778,10.339,29.188,24.597,33.811l15.306,52.256h-4.369c-11.046,0-20,8.954-20,20c0,33.673,13.113,65.331,36.923,89.142
			c3.751,3.75,8.838,5.857,14.143,5.857h150.001c5.305,0,10.392-2.107,14.143-5.858c23.811-23.812,36.923-55.469,36.923-89.141
			c0-11.046-8.954-20-20-20h-4.368l15.307-52.256c14.258-4.624,24.596-18.032,24.596-33.811c0-19.593-15.94-35.532-35.533-35.532
			s-35.533,15.939-35.533,35.532c0,2.251,0.208,4.47,0.614,6.636l-20.191,20.19l-21.23-51.256
			c3.717-5.663,5.808-12.396,5.808-19.503C185.596,25.927,169.655,9.986,150.063,9.986L150.063,9.986z"/>
	</g>
</svg>
