<?xml version="1.0" encoding="utf-8"?>
<!DOCTYPE svg PUBLIC "-//W3C//DTD SVG 1.1//EN" "http://www.w3.org/Graphics/SVG/1.1/DTD/svg11.dtd">
<svg version="1.1" xmlns="http://www.w3.org/2000/svg" xmlns:xlink="http://www.w3.org/1999/xlink" x="0px" y="0px" width="300px"
	 height="300px" viewBox="0 0 300 300" enable-background="new 0 0 300 300" xml:space="preserve">
	<g>
		<path fill="#FFFFFF" d="M43.996,280.518c-5.522,0-10-4.478-10-10v-31.066c0-5.522,4.478-10,10-10h21.066v-67.867H43.995c-5.522,0-10-4.478-10-10
			l0.001-93.199c0-5.522,4.478-10,10-10h31.066c5.522,0,10,4.478,10,10v21.066h39.469V58.385c0-5.522,4.478-10,10-10h31.066
			c5.522,0,10,4.478,10,10v21.066h39.466V58.385c0-5.522,4.478-10,10-10h31.066c5.522,0,10,4.478,10,10l-0.003,93.199
			c0,5.523-4.478,10-10,10h-21.063v67.867h21.064c5.522,0,10,4.478,10,10v31.066c0,5.522-4.478,10-10,10H43.996z"/>
		<path d="M256.13,58.385v31.066h-0.002v31.066h-0.001v31.066h-31.063v87.867h31.064v31.066h-31.064H75.063H43.996
			v-31.066h31.066v-87.867H43.995v-31.066h0.001V89.451V58.385h31.066v31.066h59.469V58.385h31.066v31.066h59.466V58.385H256.13
			 M256.13,38.385h-31.066c-11.046,0-20,8.954-20,20v11.066h-19.466V58.385c0-11.046-8.954-20-20-20h-31.066
			c-11.046,0-20,8.954-20,20v11.066H95.063V58.385c0-11.046-8.954-20-20-20H43.996c-11.046,0-20,8.954-20,20v31.066v31.066
			l-0.001,31.065c0,5.305,2.106,10.392,5.857,14.143s8.838,5.858,14.143,5.858h11.067v47.867H43.996c-11.046,0-20,8.954-20,20
			v31.066c0,11.046,8.954,20,20,20h31.066h150.001h31.064c11.046,0,20-8.954,20-20v-31.066c0-11.046-8.954-20-20-20h-11.064v-47.867
			h11.063c11.046,0,20-8.954,20-20v-31.066l0.001-30.786c0.001-0.093,0.002-0.187,0.002-0.28V58.385
			C276.13,47.339,267.176,38.385,256.13,38.385L256.13,38.385z"/>
	</g>
</svg>
