<?xml version="1.0" encoding="utf-8"?>
<!DOCTYPE svg PUBLIC "-//W3C//DTD SVG 1.1//EN" "http://www.w3.org/Graphics/SVG/1.1/DTD/svg11.dtd">
<svg version="1.1" xmlns="http://www.w3.org/2000/svg" xmlns:xlink="http://www.w3.org/1999/xlink" x="0px" y="0px" width="300px"
	 height="300px" viewBox="0 0 300 300" enable-background="new 0 0 300 300" xml:space="preserve">
	<g>
		<path fill="#FFFFFF" d="M75.063,280.518c-2.652,0-5.196-1.054-7.071-2.929c-21.922-21.923-33.994-51.069-33.994-82.07
			c0-30.945,12.035-60.054,33.89-81.964l75.106-75.107c1.913-1.913,4.472-2.929,7.073-2.929c1.289,0,2.588,0.249,3.825,0.762
			c3.737,1.548,6.174,5.195,6.173,9.24l-0.017,107.619l31.065-62.104c1.438-2.875,4.17-4.883,7.343-5.397
			c0.533-0.087,1.069-0.129,1.601-0.129c2.631,0,5.182,1.039,7.071,2.93l25.103,25.107c21.863,21.918,33.898,51.026,33.898,81.972
			c0,31.001-12.072,60.147-33.994,82.07c-1.875,1.875-4.419,2.929-7.071,2.929H75.063z"/>
		<path d="M150.064,45.519l-0.022,149.979l50.015-99.987l25.103,25.107c19.137,19.186,30.97,45.661,30.97,74.901
			c0,29.288-11.872,55.805-31.065,74.999H75.063c-19.193-19.194-31.065-45.711-31.065-74.999c0-29.24,11.833-55.716,30.97-74.901
			c0.064-0.065,0.13-0.131,0.195-0.195L150.064,45.519 M150.068,25.518c-5.205,0-10.32,2.032-14.146,5.859l-74.851,74.852
			c-0.102,0.1-0.202,0.201-0.302,0.302c-23.713,23.794-36.772,55.396-36.772,88.988c0,33.672,13.113,65.329,36.923,89.141
			c3.751,3.751,8.838,5.858,14.143,5.858h150.001c5.305,0,10.392-2.107,14.143-5.858c23.81-23.812,36.923-55.469,36.923-89.141
			c0-33.611-13.072-65.228-36.81-89.025L214.2,81.369c-3.78-3.781-8.882-5.859-14.143-5.859c-1.064,0-2.134,0.085-3.202,0.258
			c-6.346,1.029-11.81,5.046-14.686,10.795l-12.115,24.22l0.01-65.261c0.001-8.09-4.871-15.384-12.345-18.48
			C155.245,26.017,152.646,25.518,150.068,25.518L150.068,25.518z"/>
	</g>
</svg>
