<?xml version="1.0" encoding="utf-8"?>
<!-- Generator: Adobe Illustrator 16.0.0, SVG Export Plug-In . SVG Version: 6.00 Build 0)  -->
<!DOCTYPE svg PUBLIC "-//W3C//DTD SVG 1.1//EN" "http://www.w3.org/Graphics/SVG/1.1/DTD/svg11.dtd">
<svg version="1.1" id="Layer_1" xmlns="http://www.w3.org/2000/svg" xmlns:xlink="http://www.w3.org/1999/xlink" x="0px" y="0px"
	 width="300px" height="300px" viewBox="0 0 300 300" enable-background="new 0 0 300 300" xml:space="preserve">
<circle fill="#EC2127" cx="150" cy="150" r="150"/>
<path fill="#F1F2F2" d="M149.814,61.859l55.743,14.917L182.465,94.51l46.178,46.177l-23.086,32.653l-1.629-1.631
	c-6.857-6.193-15.934-9.975-25.898-9.975c-10.971,0-20.861,4.582-27.896,11.922l55.422,55.422H94.074h-0.001
	c-30.785-30.783-30.785-80.695,0-111.479v-0.001L149.814,61.859 M149.813,173.34L149.813,173.34L149.813,173.34 M149.815,46.994
	c-3.892,0-7.687,1.529-10.511,4.353l-55.742,55.74c-17.698,17.698-27.443,41.226-27.443,66.253c0,25.025,9.746,48.555,27.443,66.25
	c2.787,2.787,6.567,4.354,10.51,4.354h111.481c6.012,0,11.43-3.621,13.73-9.178c2.305-5.555,1.031-11.945-3.219-16.197
	l-41.693-41.693c1.197-0.184,2.42-0.275,3.656-0.275c5.783,0,11.338,2.1,15.684,5.916l1.33,1.334
	c2.803,2.799,6.586,4.354,10.512,4.354c0.422,0,0.84-0.018,1.262-0.053c4.365-0.373,8.348-2.652,10.875-6.232l23.088-32.65
	c4.182-5.908,3.494-13.972-1.623-19.089L204.959,95.98l9.65-7.415c4.486-3.448,6.629-9.144,5.521-14.693
	c-1.105-5.55-5.268-9.99-10.732-11.454L153.66,47.499C152.389,47.159,151.098,46.994,149.815,46.994L149.815,46.994z"/>
</svg>
